<?xml version="1.0"?>
<svg width="50" height="50" xmlns="http://www.w3.org/2000/svg" xmlns:svg="http://www.w3.org/2000/svg">
 <g>
  <title>Layer 1</title>
  <path id="svg_1" fill="#000000" d="m47.5,2.7c-1.799999,-1.8 -4,-2.7 -6.599998,-2.7l-31.500002,0c-2.599999,0 -4.8,0.9 -6.6,2.7s-2.8,4.1 -2.8,7.4l0,31.300001c0,1.799999 0.9,4 2.8,5.799999s4,2.799999 6.6,2.799999l7.300001,0c0.5,0 0.799999,0 1.099998,0c0.300001,0 0.5,-0.200001 0.700001,-0.5c0.299999,-0.299999 0.4,-0.599998 0.4,-1.099998c0,-0.100002 0,-0.800003 0,-2.200001s0,-2.5 0,-3.400002l-0.699999,0.100002c-0.5,0.099998 -1.1,0.099998 -1.900002,0.099998c-0.699999,0 -1.499999,-0.099998 -2.299999,-0.299999c-0.8,-0.200001 -1.6,-0.5 -2.2,-0.900002c-0.6,-0.599998 -1.2,-1.200001 -1.5,-2l-0.3,-0.700001c-0.2,-0.5 -0.6,-1 -1,-1.699997c-0.5,-0.600002 -0.9,-1 -1.4,-1.300003l-0.2,-0.099998c-0.2,-0.099998 -0.3,-0.299999 -0.5,-0.400002c-0.2,-0.199997 -0.3,-0.299999 -0.3,-0.5s0,-0.299999 0.2,-0.399998c0.2,-0.100002 0.5,-0.200001 0.9,-0.200001l0.6,0.099998c0.5,0.100002 0.9,0.400002 1.599999,0.800003s1.200001,1 1.6,1.699997c0.5,0.900002 1.1,1.600002 1.8,2c0.7,0.5 1.4,0.700001 2.099999,0.700001s1.300001,0 1.800001,-0.200001c0.599998,-0.099998 1,-0.299999 1.5,-0.5c0.199999,-1.5 0.699999,-2.599998 1.599998,-3.399998c-1.299999,-0.100002 -2.4,-0.299999 -3.4,-0.600002c-1,-0.299999 -2,-0.599998 -3.099999,-1.299999c-1,-0.599998 -1.900001,-1.299999 -2.7,-2.199999c-0.6,-0.9 -1.3,-2 -1.8,-3.4c-0.5,-1.400002 -0.6,-3 -0.6,-4.900002c0,-2.699999 0.8,-4.9 2.6,-6.699999c-0.8,-1.900001 -0.7,-4.200001 0.3,-6.6c0.599999,-0.2 1.599999,0 2.799999,0.5c1.3,0.5 2.200001,0.9 2.800001,1.3c0.599998,0.4 1,0.599999 1.4,0.9c2,-0.599999 4.199999,-0.8 6.299999,-0.8s4.200001,0.3 6.300001,0.8l1.299999,-0.8c0.799999,-0.599999 1.799999,-1 3,-1.5c1.200001,-0.5 2,-0.599999 2.700001,-0.4c0.899998,2.5 1.099998,4.7 0.299999,6.6c1.799999,1.799999 2.599998,4 2.599998,6.699999c0,1.800001 -0.299999,3.5 -0.599998,5c-0.5,1.5 -1,2.6 -1.799999,3.400002c-0.700001,0.799999 -1.600002,1.599998 -2.700001,2.200001c-1,0.599998 -2.099998,1 -3.099998,1.299999s-2.100002,0.5 -3.400002,0.599998c1.1,0.900002 1.700001,2.5 1.700001,4.700001l0,7.799999c0,0.400002 0,0.600002 0.199999,0.900002c0.1,0.299999 0.300001,0.399998 0.6,0.5c0.299999,0.099998 0.5,0.200001 0.599998,0.200001s0.5,0 0.800003,0l7.299999,0c2.599998,0 4.799999,-0.900002 6.599998,-2.800003s2.799999,-4 2.799999,-6.599998l0,-31.1c0.200001,-2.599999 -0.699997,-4.8 -2.599998,-6.7z"/>
 </g>
</svg>